<?xml version="1.0" encoding="UTF-8"?>
<!DOCTYPE svg PUBLIC "-//W3C//DTD SVG 1.1//EN" "http://www.w3.org/Graphics/SVG/1.1/DTD/svg11.dtd">
<!-- Creator: CorelDRAW -->
<svg xmlns="http://www.w3.org/2000/svg" xml:space="preserve" width="6.82666in" height="6.82666in" style="shape-rendering:geometricPrecision; text-rendering:geometricPrecision; image-rendering:optimizeQuality; fill-rule:evenodd; clip-rule:evenodd"
viewBox="0 0 6.82666 6.82666"
 xmlns:xlink="http://www.w3.org/1999/xlink">
 <defs>
  <style type="text/css">
   <![CDATA[
    .fil1 {fill:none}
    .fil0 {fill:#212121;fill-rule:nonzero}
   ]]>
  </style>
 </defs>
 <g id="Layer_x0020_1">
  <metadata id="CorelCorpID_0Corel-Layer"/>
  <polygon class="fil0" points="2.75286,5.19626 4.0738,5.19626 4.0738,5.4096 2.75286,5.4096 "/>
  <polygon class="fil0" points="2.75286,5.49332 4.0738,5.49332 4.0738,5.70666 2.75286,5.70666 "/>
  <polygon class="fil0" points="2.95072,5.79037 3.87594,5.79037 3.87594,6.0037 2.95072,6.0037 "/>
  <path class="fil0" d="M3.41333 0.822945c0.43261,0 0.82428,0.175362 1.1078,0.458878 0.283516,0.283516 0.458878,0.675185 0.458878,1.1078 0,0.482787 -0.174453,0.685386 -0.375213,0.918543 -0.240988,0.279874 -0.524787,0.609465 -0.524787,1.67478l0 0.106669 -0.106669 0 -1.12 0 -0.106669 0 0 -0.106669c0,-1.06531 -0.283799,-1.39491 -0.524787,-1.67478 -0.20076,-0.23315 -0.375217,-0.43576 -0.375217,-0.918551 0,-0.43261 0.175362,-0.82428 0.458878,-1.1078 0.283516,-0.283516 0.675185,-0.458878 1.1078,-0.458878zm0.956961 0.609713c-0.244898,-0.244898 -0.583236,-0.396374 -0.956961,-0.396374 -0.373724,0 -0.712063,0.151476 -0.956961,0.396374 -0.244898,0.244898 -0.396374,0.583236 -0.396374,0.956961 0,0.404606 0.150043,0.578858 0.322713,0.779386 0.256677,0.298091 0.557484,0.647465 0.576346,1.70727l0.908555 0c0.0188622,-1.05981 0.319673,-1.40919 0.576346,-1.70728 0.172665,-0.200528 0.322709,-0.37478 0.322709,-0.779378 0,-0.373724 -0.151476,-0.712063 -0.396374,-0.956961z"/>
  <polygon class="fil0" points="3.17273,3.03011 3.17273,4.98294 3.06606,4.98294 3.06606,3.03011 "/>
  <polygon class="fil0" points="3.78668,3.03011 3.78668,4.98294 3.68001,4.98294 3.68001,3.03011 "/>
  <path class="fil0" d="M3.41333 1.75999c0.191453,0 0.364791,0.0776102 0.490256,0.203079 0.125469,0.125465 0.203079,0.298803 0.203079,0.490256 0,0.191449 -0.0776063,0.364783 -0.203079,0.490256 -0.125465,0.125469 -0.298803,0.203079 -0.490256,0.203079 -0.191453,0 -0.364791,-0.0776102 -0.490256,-0.203079 -0.125472,-0.125472 -0.203079,-0.298807 -0.203079,-0.490256 0,-0.191453 0.0776102,-0.364791 0.203079,-0.490256 0.125465,-0.125469 0.298803,-0.203079 0.490256,-0.203079zm0.414839 0.278496c-0.106157,-0.106161 -0.252831,-0.171827 -0.414839,-0.171827 -0.162008,0 -0.308681,0.0656654 -0.414839,0.171827 -0.106161,0.106157 -0.171827,0.252831 -0.171827,0.414839 0,0.162004 0.0656654,0.308677 0.171827,0.414839 0.106157,0.106161 0.252831,0.171827 0.414839,0.171827 0.162008,0 0.308681,-0.0656654 0.414839,-0.171827 0.106161,-0.106161 0.171827,-0.252835 0.171827,-0.414839 0,-0.162008 -0.0656654,-0.308681 -0.171827,-0.414839z"/>
  <path class="fil0" d="M3.39325 2.83125l0 -0.0750433c-0.0375906,-0.00469685 -0.068063,-0.0130984 -0.0915591,-0.0252047 -0.0234961,-0.0121024 -0.0438583,-0.031752 -0.0609488,-0.0586654 -0.0170866,-0.0270551 -0.0270551,-0.0599488 -0.0297598,-0.0988228l0.0754724 -0.0142402c0.00583858,0.0402953 0.0160906,0.0699173 0.0308976,0.0888543 0.0210748,0.0267717 0.0464252,0.0415787 0.0758976,0.0445709l0 -0.238945c-0.0308976,-0.00583858 -0.0623701,-0.0177992 -0.0946929,-0.0358819 -0.0239213,-0.0133858 -0.0422913,-0.0318976 -0.055248,-0.0555354 -0.0129606,-0.0236378 -0.0193661,-0.0504094 -0.0193661,-0.0804567 0,-0.0533976 0.018937,-0.096685 0.0566732,-0.129724 0.0253465,-0.0223543 0.0629409,-0.0358819 0.112634,-0.0408661l0 -0.0358858 0.0442874 0 0 0.0358858c0.0435748,0.00412992 0.0783189,0.0169449 0.103807,0.0383031 0.0328937,0.0272008 0.0525472,0.0646496 0.0592402,0.112213l-0.0776102 0.0116732c-0.00441339,-0.0294764 -0.0136693,-0.0521142 -0.0277677,-0.0677795 -0.0139528,-0.0156654 -0.0331772,-0.0260591 -0.0576693,-0.0310433l0 0.216445c0.0377362,0.00953937 0.0627992,0.0169449 0.0750433,0.0222126 0.0233543,0.0102559 0.0424331,0.0227835 0.0571024,0.0374528 0.0148071,0.0148071 0.0262008,0.0323228 0.0340315,0.0525433 0.00797638,0.0203622 0.0119606,0.0422913 0.0119606,0.0659291 0,0.0521181 -0.0166575,0.0954094 -0.0496969,0.130154 -0.0330354,0.0348858 -0.0758976,0.0533976 -0.128441,0.0559606l0 0.0758976 -0.0442874 0zm0 -0.657449c-0.029189,0.00441339 -0.0522598,0.0160906 -0.0690591,0.0350315 -0.0168031,0.018937 -0.0252047,0.0412953 -0.0252047,0.0672126 0,0.0254882 0.00711811,0.0469882 0.0215,0.0642205 0.0143819,0.0172283 0.0385906,0.0310433 0.0727638,0.0412953l0 -0.20776zm0.0442874 0.518898c0.0291929,-0.00355906 0.0532559,-0.0162323 0.0723386,-0.037878 0.0190827,-0.0216457 0.028622,-0.0485591 0.028622,-0.0805984 0,-0.0271969 -0.00683465,-0.049126 -0.0202205,-0.0656457 -0.0135276,-0.0165157 -0.0404409,-0.0313268 -0.0807402,-0.0444252l0 0.228547z"/>
 </g>
 <rect class="fil1" width="6.82666" height="6.82666"/>
</svg>
